<?xml version="1.0" encoding="UTF-8" standalone="no"?>
<!DOCTYPE svg PUBLIC "-//W3C//DTD SVG 1.1//EN" "http://www.w3.org/Graphics/SVG/1.1/DTD/svg11.dtd">
<svg width="100%" height="100%" viewBox="0 0 250 250" version="1.1" xmlns="http://www.w3.org/2000/svg" xmlns:xlink="http://www.w3.org/1999/xlink" xml:space="preserve" xmlns:serif="http://www.serif.com/" style="fill-rule:evenodd;clip-rule:evenodd;stroke-linejoin:round;stroke-miterlimit:2;">
    <g transform="matrix(2,0,0,2,0,65)">
        <g transform="matrix(0.126863,0,0,0.0832561,0,0)">
            <rect x="0" y="0" width="960" height="720" style="fill-opacity:0;"/>
        </g>
        <g transform="matrix(1,0,0,1,-122.279,-214.035)">
            <path d="M127.887,265.792L127.887,265.042L130.871,263.542L130.871,238.917L128.027,236.542L128.027,236.167L134.465,233.542L134.793,233.542L135.168,236.401L135.496,236.401C136.652,235.401 137.772,234.677 138.856,234.229C139.949,233.771 141.132,233.542 142.402,233.542C143.923,233.542 145.288,233.948 146.496,234.76C147.715,235.573 148.684,236.719 149.402,238.198C150.121,239.667 150.481,241.443 150.481,243.526C150.481,246.047 149.996,248.203 149.027,249.995C148.059,251.786 146.767,253.156 145.152,254.104C143.538,255.052 141.751,255.526 139.793,255.526C138.116,255.526 136.606,255.37 135.262,255.057L135.262,263.542L138.668,265.042L138.668,265.792L127.887,265.792ZM139.559,236.901C138.069,236.901 136.637,237.323 135.262,238.167L135.262,251.417C136.074,252.104 136.923,252.583 137.809,252.854C138.694,253.115 139.684,253.245 140.777,253.245C141.704,253.245 142.569,252.979 143.371,252.448C144.184,251.917 144.829,251.052 145.309,249.854C145.798,248.656 146.043,247.047 146.043,245.026C146.043,243.13 145.746,241.594 145.152,240.417C144.559,239.229 143.772,238.349 142.793,237.776C141.814,237.193 140.736,236.901 139.559,236.901ZM156.449,266.307C155.73,266.307 155.282,266.203 155.105,265.995C154.938,265.797 154.855,265.448 154.855,264.948L154.855,262.432L155.043,262.198L157.199,262.198C157.97,262.198 158.574,262.135 159.011,262.01C159.449,261.885 159.855,261.547 160.23,260.995C160.605,260.453 161.069,259.547 161.621,258.276L163.168,254.776L154.433,236.167L151.355,234.76L151.355,234.01L162.933,234.01L162.933,234.76L159.293,236.167L159.293,236.401L165.261,249.276L165.449,249.276L170.355,236.635L170.355,236.401L167.043,234.76L167.043,234.01L176.136,234.01L176.136,234.76L172.683,236.307L163.449,258.745C163.168,259.463 162.923,260.062 162.714,260.542C162.517,261.021 162.293,261.484 162.043,261.932C161.793,262.391 161.433,262.943 160.964,263.588C160.35,264.495 159.636,265.172 158.824,265.62C158.011,266.078 157.22,266.307 156.449,266.307Z" style="fill-rule:nonzero;"/>
        </g>
        <g transform="matrix(1,0,0,1,-122.279,-214.035)">
            <path d="M176.828,255.057L176.828,254.307L179.782,252.823L179.782,225.385L176.969,223.01L176.969,222.635L183.828,220.073L184.203,220.073L184.203,252.823L187.094,254.307L187.094,255.057L176.828,255.057ZM201.606,255.526C199.523,255.526 197.695,255.036 196.122,254.057C194.559,253.078 193.33,251.755 192.434,250.088C191.549,248.422 191.106,246.562 191.106,244.51C191.106,242.458 191.549,240.604 192.434,238.948C193.33,237.281 194.559,235.963 196.122,234.995C197.695,234.026 199.523,233.542 201.606,233.542C203.69,233.542 205.507,234.026 207.059,234.995C208.622,235.963 209.846,237.281 210.731,238.948C211.617,240.604 212.059,242.458 212.059,244.51C212.059,246.562 211.617,248.422 210.731,250.088C209.846,251.755 208.622,253.078 207.059,254.057C205.507,255.036 203.69,255.526 201.606,255.526ZM202.216,253.463C203.393,253.463 204.356,253.078 205.106,252.307C205.856,251.526 206.403,250.531 206.747,249.323C207.091,248.104 207.263,246.812 207.263,245.448C207.263,243.802 207.049,242.224 206.622,240.713C206.205,239.203 205.544,237.969 204.638,237.01C203.742,236.042 202.559,235.557 201.091,235.557C199.914,235.557 198.934,235.937 198.153,236.698C197.382,237.458 196.815,238.448 196.45,239.667C196.096,240.875 195.919,242.161 195.919,243.526C195.919,245.182 196.138,246.771 196.575,248.292C197.013,249.812 197.695,251.057 198.622,252.026C199.559,252.984 200.757,253.463 202.216,253.463ZM216.3,255.057L216.3,254.307L219.285,252.823L219.285,238.87L216.441,236.542L216.441,236.167L222.878,233.542L223.206,233.542L223.628,236.995L223.863,236.995C225.05,235.849 226.186,234.99 227.269,234.417C228.363,233.833 229.592,233.542 230.956,233.542C232.758,233.542 234.258,234.005 235.456,234.932C236.654,235.849 237.253,237.224 237.253,239.057L237.253,252.823L240.191,254.307L240.191,255.057L229.738,255.057L229.738,254.307L232.816,252.823L232.816,241.198C232.816,239.865 232.41,238.865 231.597,238.198C230.795,237.521 229.758,237.182 228.488,237.182C227.706,237.182 226.847,237.307 225.91,237.557C224.982,237.807 224.238,238.198 223.675,238.729L223.675,252.823L226.753,254.307L226.753,255.057L216.3,255.057Z" style="fill:rgb(229,38,31);fill-rule:nonzero;"/>
        </g>
    </g>
</svg>
